<?xml version="1.0" encoding="UTF-8" standalone="no"?>
<!DOCTYPE svg PUBLIC "-//W3C//DTD SVG 1.1//EN" "http://www.w3.org/Graphics/SVG/1.1/DTD/svg11.dtd">
<svg width="100%" height="100%" viewBox="0 0 498 156" version="1.1" xmlns="http://www.w3.org/2000/svg" xmlns:xlink="http://www.w3.org/1999/xlink" xml:space="preserve" xmlns:serif="http://www.serif.com/" style="fill-rule:evenodd;clip-rule:evenodd;stroke-miterlimit:10;">
    <g id="Artboard1" transform="matrix(1,0,0,1.02124,-1.57427,-295.004)">
        <rect x="1.574" y="288.869" width="497.939" height="152.532" style="fill:none;"/>
        <g transform="matrix(0.381127,0,0,0.373201,312.227,304.352)">
            <path d="M251.455,348.398C248.64,349.403 246.835,351.222 246.48,352.578C245.806,355.15 248.797,356.233 251.176,355.348C253.693,354.413 256.609,352.026 255.488,349.832C255.429,349.716 255.364,349.606 255.295,349.498L255.309,349.489L245.881,337.058C247.384,336.453 249.105,334.924 250.209,334.233C252.875,332.565 255.7,331.3 258.42,329.773L265.945,339.696C265.401,339.61 264.771,339.679 264.047,339.96C261.232,340.965 259.427,342.784 259.072,344.14C258.398,346.711 261.389,347.795 263.768,346.911C266.285,345.976 269.201,343.589 268.08,341.395C268.021,341.279 267.955,341.169 267.887,341.061L267.901,341.053L259.015,329.336C258.808,328.231 258.089,326.809 257.383,326.059C255.34,326.863 253.321,328.044 251.438,329.228C250.667,329.713 242.792,334.541 242.792,334.541C243.563,335.778 244.868,337.31 244.868,337.31C244.949,337.306 245.033,337.292 245.116,337.279L253.349,348.135C252.809,348.048 252.179,348.117 251.455,348.398Z" style="fill:white;fill-opacity:0.4;fill-rule:nonzero;"/>
            <path d="M445.077,313.241L445.228,312.611L444.717,312.539C443.541,312.374 442.279,312.197 440.986,312.037C440.929,311.044 440.937,310.018 440.978,309.005C442.173,309.155 443.339,309.318 444.429,309.472L444.938,309.543L445.089,308.913L444.58,308.841C443.453,308.683 442.245,308.514 441.007,308.359C441.056,307.434 441.126,306.53 441.192,305.684L441.223,305.288L440.388,305.25L440.357,305.646C440.293,306.473 440.224,307.356 440.175,308.259C438.884,308.108 437.572,307.98 436.288,307.902C436.327,307.331 436.37,306.773 436.412,306.239L436.443,305.843L435.608,305.805L435.577,306.201C435.535,306.734 435.492,307.29 435.454,307.859C434.218,307.807 433.019,307.807 431.91,307.891L431.993,308.528C433.058,308.447 434.216,308.447 435.414,308.498C435.355,309.498 435.317,310.528 435.332,311.545C434.188,311.504 433.08,311.51 432.048,311.588L432.131,312.225C433.136,312.149 434.223,312.144 435.349,312.186C435.4,313.511 435.555,314.795 435.89,315.935L436.706,315.795C436.389,314.716 436.239,313.493 436.187,312.226C437.501,312.301 438.853,312.431 440.186,312.587C440.267,313.57 440.416,314.517 440.67,315.38L441.486,315.24C441.255,314.454 441.115,313.59 441.034,312.69C442.257,312.843 443.451,313.01 444.566,313.167L445.077,313.241ZM436.168,311.586C436.151,310.573 436.189,309.544 436.248,308.543C437.531,308.621 438.848,308.751 440.145,308.904C440.102,309.913 440.091,310.939 440.142,311.937C438.819,311.785 437.477,311.658 436.168,311.586Z" style="fill:white;fill-opacity:0.4;fill-rule:nonzero;"/>
            <path d="M410.572,298.811L409.66,298.804L412.444,317.873C411.903,317.389 411.182,317.026 410.237,316.847C406.613,316.049 403.618,316.923 402.459,318.272C400.26,320.831 402.881,324.216 405.964,324.849C409.225,325.519 413.749,324.759 413.788,321.38C413.79,321.202 413.783,321.025 413.77,320.85L413.79,320.85L410.572,298.811Z" style="fill:white;fill-opacity:0.4;fill-rule:nonzero;"/>
            <path d="M298.652,305.874L297.74,305.867L300.523,324.936C299.982,324.452 299.261,324.088 298.316,323.91C294.692,323.112 291.697,323.986 290.538,325.335C288.339,327.894 290.96,331.279 294.043,331.912C297.304,332.582 301.828,331.822 301.867,328.443C301.869,328.265 301.861,328.088 301.849,327.913L301.869,327.913L298.652,305.874Z" style="fill:white;fill-opacity:0.4;fill-rule:nonzero;"/>
            <path d="M298.652,305.874L297.74,305.867L300.523,324.936C299.982,324.452 299.261,324.088 298.316,323.91C294.692,323.112 291.697,323.986 290.538,325.335C288.339,327.894 290.96,331.279 294.043,331.912C297.304,332.582 301.828,331.822 301.867,328.443C301.869,328.265 301.861,328.088 301.849,327.913L301.869,327.913L298.652,305.874Z" style="fill:white;fill-opacity:0.4;fill-rule:nonzero;"/>
            <path d="M282.826,281.433C280.971,279.734 277.728,279.667 275.646,280.119C273.366,280.614 271.293,281.759 268.879,281.838C266.946,281.901 265.121,280.816 263.357,279.344L262.371,279.68L274.94,304.764C274.152,304.38 273.222,304.212 272.127,304.353C267.884,304.753 265.025,306.943 264.346,309.017C263.057,312.95 267.314,316.067 270.904,315.672C274.702,315.254 279.256,312.625 277.87,308.513C277.797,308.296 277.714,308.085 277.627,307.877L277.649,307.869L270.466,293.533C271.168,293.686 272.045,293.302 272.649,293.121C273.868,292.757 275.004,292.211 275.976,291.485C276.932,290.771 277.577,290.032 278.39,289.163C279.791,287.665 281.313,287.169 283.373,287.717C283.998,287.883 284.319,287.941 284.758,288.448C285.225,288.987 285.602,289.617 285.439,290.05C286.179,288.86 284.445,287.295 283.41,286.914C281.695,286.282 279.945,286.452 278.459,287.003C277.507,287.356 276.067,288.162 275.216,288.666C274.513,289.082 273.709,289.705 272.852,289.992C271.895,290.313 271.359,290.647 270.255,290.394C269.809,290.292 269.085,290.042 268.541,289.693L267.149,286.915C267.749,287.527 268.589,287.745 269.181,287.821C270.238,287.958 271.105,287.262 271.924,286.805C273.458,285.95 274.78,284.96 276.179,283.949C277.495,282.998 280.587,281.466 282.449,283.02C283.395,283.81 283.067,284.809 283.264,285.725C284.307,284.644 284.149,282.644 282.826,281.433Z" style="fill:white;fill-opacity:0.4;fill-rule:nonzero;"/>
            <path d="M433.886,329.766C433.693,328.894 432.685,328.287 431.923,328.054C431.089,327.798 430.17,327.785 429.39,327.374C428.765,327.045 428.44,326.372 428.223,325.589L427.834,325.517L426.01,335.706C425.85,335.443 425.595,335.221 425.217,335.068C423.785,334.427 422.378,334.602 421.684,335.133C420.369,336.141 420.993,337.894 422.218,338.419C423.513,338.974 425.558,338.967 426.069,337.419C426.096,337.337 426.119,337.256 426.139,337.174L426.148,337.176L427.19,331.353C427.376,331.528 427.742,331.565 427.974,331.618C428.443,331.723 428.927,331.756 429.402,331.703C429.868,331.651 430.243,331.534 430.7,331.406C431.488,331.186 432.083,331.305 432.607,331.85C432.766,332.015 432.854,332.092 432.875,332.331C432.898,332.586 432.871,332.853 432.72,332.96C433.228,332.718 433.042,331.911 432.804,331.604C432.408,331.095 431.817,330.832 431.221,330.737C430.839,330.676 430.199,330.671 429.814,330.676C429.496,330.68 429.098,330.731 428.762,330.667C428.386,330.595 428.14,330.604 427.85,330.325C427.733,330.212 427.562,330.002 427.471,329.794L427.673,328.665C427.721,328.967 427.936,329.187 428.105,329.318C428.407,329.552 428.841,329.489 429.205,329.493C429.887,329.5 430.532,329.427 431.207,329.361C431.842,329.299 433.171,329.374 433.4,330.201C433.516,330.621 433.182,330.878 433.033,331.202C433.612,331.047 434.024,330.387 433.886,329.766Z" style="fill:white;fill-opacity:0.4;fill-rule:nonzero;"/>
            <path d="M356.506,340.247C356.131,337.888 354.786,335.736 352.815,334.343C351.469,333.392 349.991,332.908 348.539,332.925C348.433,332.306 348.322,331.688 348.206,331.074C347.987,329.917 347.627,328.682 347.245,327.374C347.195,327.202 347.144,327.03 347.094,326.857C347.474,326.728 347.987,326.522 348.759,326.181C350.346,325.481 351.18,323.276 350.937,320.426C350.782,318.616 350.271,317.085 349.418,315.876C348.852,315.075 348.223,314.887 347.794,314.871C347.78,314.871 347.766,314.87 347.752,314.87C346.991,314.86 346.247,315.355 345.539,316.344C343.691,318.925 344.191,322.305 345.049,325.558C344.676,325.64 344.15,325.785 343.326,326.069C340.416,327.07 337.985,329.587 336.824,332.801C335.641,336.075 335.928,339.636 337.633,342.826C338.747,344.911 341.959,348.16 345.611,348.852C346.47,349.015 347.459,349.028 348.483,348.92C348.55,351.533 348.453,355.935 346.158,356.647C344.592,357.133 342.379,356.883 340.896,356.052C340.026,355.564 339.47,354.93 339.243,354.166C338.948,353.174 339.07,352.031 339.538,351.386C339.847,350.96 340.281,350.756 340.867,350.761L340.878,350.761C341.7,350.772 342.435,351.2 342.845,351.907C343.161,352.452 343.213,353.062 342.978,353.46C342.779,353.797 342.368,353.997 341.797,354.043C341.82,353.95 341.853,353.836 341.898,353.7C342.039,353.272 341.805,352.79 341.375,352.624C340.945,352.458 340.481,352.669 340.339,353.098C340.141,353.696 339.953,354.459 340.262,355.053C340.414,355.346 340.668,355.562 340.976,355.662C341.039,355.682 341.103,355.695 341.168,355.7C343.201,355.857 344.064,354.934 344.397,354.369C344.937,353.455 344.879,352.211 344.248,351.122C343.524,349.873 342.241,349.118 340.814,349.098L340.795,349.098C339.7,349.088 338.802,349.523 338.198,350.355C337.433,351.409 337.227,353.063 337.673,354.567C338.031,355.772 338.891,356.785 340.16,357.497C341.354,358.166 342.878,358.533 344.34,358.553C345.176,358.564 345.991,358.463 346.712,358.239C350.19,357.16 350.213,351.742 350.114,348.65C352.273,348.17 354.362,347.22 355.506,346.047C356.971,344.547 356.81,342.159 356.506,340.247ZM348.197,343.479C347.656,343.416 347.044,343.257 346.366,342.963C344.665,342.227 343.66,340.69 343.741,338.95C343.81,337.478 344.767,335.582 347.201,334.833C347.641,337.675 347.974,340.564 348.197,343.479ZM346.885,317.367C347.361,316.703 347.7,316.532 347.816,316.533L347.819,316.533C347.866,316.535 347.975,316.618 348.101,316.797C348.77,317.745 349.175,318.985 349.303,320.483C349.481,322.564 348.973,324.24 348.039,324.651C347.386,324.939 346.95,325.117 346.638,325.23C345.854,322.275 345.42,319.413 346.885,317.367ZM345.83,347.218C342.907,346.664 340.024,343.887 339.067,342.095C337.596,339.342 337.348,336.269 338.369,333.444C339.373,330.666 341.45,328.498 343.926,327.647C344.715,327.376 345.184,327.247 345.502,327.18C345.559,327.377 345.616,327.573 345.673,327.768C346.042,329.034 346.391,330.23 346.594,331.304C346.71,331.92 346.822,332.539 346.928,333.16C344.108,333.924 342.229,336.096 342.102,338.784C341.985,341.268 343.398,343.453 345.79,344.487C346.688,344.875 347.536,345.083 348.311,345.145C348.354,345.844 348.391,346.543 348.422,347.244C347.486,347.36 346.585,347.361 345.83,347.218ZM354.311,344.848C353.436,345.745 351.787,346.507 350.048,346.941C350.019,346.31 349.985,345.68 349.945,345.051C351.059,344.813 351.898,344.226 352.336,343.472C352.96,342.397 352.711,341.138 351.702,340.264C351.349,339.958 350.833,339.987 350.548,340.33C350.264,340.672 350.321,341.198 350.674,341.504C351.052,341.831 351.131,342.192 350.909,342.574C350.737,342.87 350.37,343.169 349.825,343.347C349.597,340.395 349.258,337.468 348.81,334.59C349.857,334.614 350.933,334.99 351.924,335.691C353.482,336.792 354.589,338.563 354.885,340.427C355.111,341.841 355.296,343.837 354.311,344.848Z" style="fill:white;fill-opacity:0.4;fill-rule:nonzero;"/>
            <path d="M395.452,330.57C395.423,330.471 395.391,330.375 395.356,330.28L395.365,330.276L390.674,319.718C390.624,318.839 390.278,317.625 389.893,316.924C388.565,317.156 387.225,317.679 385.97,318.231C385.456,318.457 380.214,320.668 380.214,320.668C380.606,321.752 381.308,323.159 381.308,323.159C381.359,323.171 381.412,323.176 381.465,323.181L385.812,332.964C385.48,332.798 385.083,332.733 384.613,332.813C382.791,333.055 381.539,334.103 381.221,335.068C380.619,336.898 382.402,338.277 383.944,338.046C385.576,337.802 387.56,336.528 387.019,334.652C386.99,334.553 386.958,334.457 386.923,334.362L386.932,334.358L382.806,325.072C383.61,324.615 385.282,324.004 386.906,323.412C388.949,322.667 390.359,322.137 391.054,321.703L394.245,328.885C393.913,328.719 393.516,328.654 393.046,328.734C391.224,328.976 389.972,330.024 389.654,330.989C389.052,332.819 390.835,334.198 392.377,333.967C394.009,333.72 395.993,332.447 395.452,330.57ZM386.549,322.553C384.895,323.156 383.321,323.731 382.425,324.214L381.954,323.154C382.932,322.973 384.111,322.13 384.847,321.809C386.624,321.036 388.471,320.597 390.271,319.941L390.668,320.834C390.18,321.228 388.177,321.96 386.549,322.553Z" style="fill:white;fill-opacity:0.4;fill-rule:nonzero;"/>
            <path d="M329.292,312.016C329.347,311.926 329.397,311.836 329.444,311.746L329.454,311.749L334.112,301.179C334.75,300.504 335.428,299.405 335.683,298.658C334.53,298.031 333.145,297.61 331.8,297.26C331.249,297.117 325.705,295.591 325.705,295.591C325.161,296.622 324.597,298.077 324.597,298.077C324.625,298.116 324.66,298.152 324.695,298.188L320.379,307.981C320.262,307.659 320.021,307.374 319.615,307.149C318.091,306.232 316.368,306.249 315.394,306.767C313.547,307.749 313.798,309.832 315.108,310.589C316.493,311.39 318.927,311.647 319.97,309.944C320.025,309.854 320.075,309.764 320.122,309.674L320.132,309.677L324.229,300.381C325.17,300.529 326.866,301.085 328.513,301.626C330.585,302.307 332.027,302.765 332.87,302.863L329.701,310.052C329.585,309.73 329.343,309.445 328.937,309.22C327.413,308.303 325.69,308.32 324.716,308.838C322.869,309.82 323.12,311.903 324.43,312.66C325.816,313.461 328.249,313.718 329.292,312.016ZM328.909,300.781C327.232,300.23 325.636,299.706 324.607,299.523L325.075,298.462C325.932,298.916 327.444,299.006 328.231,299.213C330.129,299.713 331.821,300.501 333.647,301.1L333.253,301.994C332.591,301.99 330.559,301.323 328.909,300.781Z" style="fill:white;fill-opacity:0.4;fill-rule:nonzero;"/>
        </g>
        <g transform="matrix(1,0,0,0.979203,-210.851,-80.2195)">
            <g>
                <g transform="matrix(2.08984,0,0,1,-251.07,0)">
                    <path d="M230.373,397.595L448.957,397.595" style="fill:none;fill-rule:nonzero;stroke:white;stroke-width:0.61px;"/>
                </g>
                <g transform="matrix(2.08984,0,0,1,-251.07,0)">
                    <path d="M230.373,404.828L448.957,404.828" style="fill:none;fill-rule:nonzero;stroke:white;stroke-width:0.61px;"/>
                </g>
                <g transform="matrix(2.08984,0,0,1,-251.07,0)">
                    <path d="M230.373,412.061L448.957,412.061" style="fill:none;fill-rule:nonzero;stroke:white;stroke-width:0.61px;"/>
                </g>
                <g transform="matrix(2.08984,0,0,1,-251.07,0)">
                    <path d="M230.373,419.294L448.957,419.294" style="fill:none;fill-rule:nonzero;stroke:white;stroke-width:0.61px;"/>
                </g>
                <g transform="matrix(2.08984,0,0,1,-251.07,0)">
                    <path d="M230.373,426.527L448.957,426.527" style="fill:none;fill-rule:nonzero;stroke:white;stroke-width:0.61px;"/>
                </g>
            </g>
            <path d="M439.541,402.194L438.851,402.149L439.895,416.698C439.513,416.308 438.988,416.002 438.282,415.826C435.584,415.064 433.27,415.595 432.318,416.565C430.511,418.405 432.306,421.081 434.604,421.694C437.034,422.343 440.499,421.965 440.717,419.411C440.728,419.276 440.733,419.142 440.733,419.009L440.748,419.01L439.541,402.194Z" style="fill:white;fill-rule:nonzero;"/>
            <g transform="matrix(1,0,0,1,209.658,362.78)">
                <path d="M268.939,66.254C268.119,66.36 267.175,66.413 266.091,66.4C264.134,66.376 260.393,65.695 258.682,63.97C257.917,63.198 257.629,62.315 257.827,61.346C258.155,59.736 259.118,58.453 260.611,57.635C262.763,56.455 265.928,56.255 269.766,57.055C273.063,57.742 274.528,59.618 274.12,62.63C273.923,64.083 272.808,65.756 268.939,66.254ZM263.921,57.691C262.901,57.822 262.015,58.09 261.28,58.492C260.062,59.16 259.305,60.178 259.032,61.518C258.895,62.188 259.088,62.775 259.622,63.314C260.993,64.697 264.24,65.351 266.108,65.374C270.354,65.426 272.641,64.463 272.905,62.513C273.135,60.816 272.952,58.774 269.471,58.048C267.354,57.608 265.481,57.49 263.921,57.691Z" style="fill:white;fill-rule:nonzero;"/>
            </g>
            <g transform="matrix(1,0,0,1,219.965,362.485)">
                <path d="M326.821,43.028L325.898,43.021L328.716,64.184C328.169,63.646 327.439,63.244 326.482,63.046C322.813,62.161 319.781,63.131 318.608,64.628C316.381,67.468 319.035,71.225 322.156,71.928C325.457,72.671 330.037,71.828 330.076,68.078C330.078,67.88 330.07,67.684 330.058,67.49L330.079,67.49L326.821,43.028Z" style="fill:white;fill-rule:nonzero;"/>
            </g>
            <g transform="matrix(0.569208,-0.822193,0.822193,0.569208,292.598,607.485)">
                <path d="M306.538,69C306.391,67.366 304.826,66.076 303.598,65.515C302.254,64.9 300.718,64.716 299.495,63.826C298.516,63.113 298.107,61.822 297.902,60.345L297.266,60.145L292.148,78.532C291.933,78.021 291.551,77.57 290.95,77.223C288.682,75.798 286.29,75.874 285.022,76.729C282.616,78.352 283.306,81.678 285.25,82.853C287.307,84.096 290.731,84.439 291.902,81.686C291.964,81.541 292.018,81.395 292.069,81.249L292.083,81.253L295.008,70.745C295.284,71.099 295.889,71.231 296.267,71.367C297.03,71.642 297.835,71.787 298.641,71.771C299.433,71.756 300.083,71.606 300.875,71.452C302.239,71.186 303.211,71.507 303.978,72.599C304.211,72.93 304.342,73.086 304.33,73.528C304.317,73.999 304.218,74.485 303.943,74.655C304.843,74.299 304.695,72.785 304.358,72.18C303.799,71.176 302.862,70.591 301.883,70.313C301.256,70.135 300.184,70.013 299.539,69.956C299.006,69.909 298.33,69.933 297.779,69.757C297.164,69.56 296.749,69.533 296.32,68.97C296.146,68.742 295.903,68.328 295.793,67.93L296.36,65.893C296.379,66.455 296.694,66.897 296.951,67.167C297.41,67.65 298.149,67.609 298.758,67.68C299.898,67.812 300.994,67.789 302.138,67.785C303.214,67.781 305.425,68.15 305.641,69.709C305.751,70.501 305.139,70.913 304.823,71.483C305.821,71.304 306.643,70.165 306.538,69Z" style="fill:white;fill-rule:nonzero;"/>
            </g>
            <g transform="matrix(0.923602,0.383353,-0.383353,0.923602,309.473,223.992)">
                <path d="M369.703,65.916C369.275,62.96 367.737,60.264 365.484,58.518C363.946,57.326 362.256,56.72 360.596,56.742C360.475,55.966 360.348,55.193 360.215,54.423C359.965,52.973 359.553,51.425 359.117,49.787C359.059,49.571 359.002,49.355 358.945,49.139C359.38,48.977 359.965,48.719 360.848,48.292C362.662,47.415 363.616,44.652 363.338,41.08C363.161,38.811 362.577,36.893 361.601,35.379C360.954,34.375 360.235,34.14 359.745,34.119C359.729,34.118 359.713,34.118 359.697,34.118C358.828,34.105 357.977,34.726 357.168,35.965C355.055,39.199 355.627,43.435 356.608,47.51C356.181,47.612 355.581,47.795 354.638,48.15C351.312,49.404 348.534,52.558 347.206,56.585C345.854,60.688 346.182,65.149 348.13,69.147C349.404,71.76 353.075,75.831 357.249,76.698C358.231,76.902 359.361,76.919 360.532,76.783C360.609,80.057 360.498,85.573 357.874,86.466C356.084,87.075 353.554,86.762 351.86,85.72C350.866,85.109 350.23,84.314 349.971,83.357C349.634,82.114 349.773,80.682 350.308,79.873C350.661,79.34 351.158,79.084 351.827,79.09L351.84,79.09C352.78,79.104 353.62,79.64 354.089,80.526C354.45,81.209 354.51,81.973 354.241,82.472C354.014,82.894 353.544,83.145 352.891,83.203C352.918,83.086 352.955,82.944 353.007,82.773C353.169,82.237 352.901,81.633 352.409,81.425C351.917,81.217 351.387,81.482 351.225,82.019C350.999,82.769 350.784,83.725 351.137,84.469C351.311,84.836 351.601,85.106 351.953,85.232C352.025,85.257 352.098,85.273 352.173,85.28C354.497,85.476 355.483,84.32 355.864,83.612C356.481,82.467 356.415,80.908 355.693,79.543C354.865,77.978 353.399,77.032 351.768,77.007L351.746,77.007C350.495,76.994 349.468,77.539 348.777,78.583C347.902,79.904 347.667,81.976 348.177,83.86C348.587,85.37 349.569,86.64 351.02,87.531C352.385,88.37 354.127,88.83 355.797,88.855C356.752,88.869 357.684,88.742 358.508,88.461C362.483,87.109 362.51,80.319 362.396,76.446C364.864,75.845 367.252,74.654 368.56,73.184C370.234,71.304 370.05,68.312 369.703,65.916ZM360.205,69.966C359.587,69.888 358.888,69.687 358.113,69.32C356.169,68.398 355.019,66.472 355.113,64.292C355.192,62.447 356.286,60.072 359.067,59.133C359.57,62.693 359.951,66.313 360.205,69.966ZM358.705,37.246C359.249,36.414 359.637,36.199 359.77,36.201L359.773,36.201C359.827,36.203 359.951,36.308 360.096,36.531C360.861,37.719 361.323,39.273 361.47,41.15C361.673,43.758 361.093,45.857 360.026,46.373C359.28,46.734 358.781,46.957 358.425,47.098C357.527,43.396 357.031,39.81 358.705,37.246ZM357.5,74.651C354.159,73.957 350.864,70.477 349.77,68.232C348.089,64.782 347.805,60.932 348.972,57.392C350.119,53.911 352.494,51.195 355.324,50.128C356.226,49.788 356.761,49.627 357.126,49.542C357.191,49.789 357.257,50.035 357.322,50.279C357.744,51.865 358.143,53.364 358.375,54.71C358.508,55.482 358.636,56.257 358.757,57.036C355.534,57.993 353.386,60.715 353.241,64.084C353.107,67.196 354.723,69.935 357.456,71.231C358.482,71.718 359.452,71.977 360.338,72.056C360.387,72.932 360.43,73.808 360.464,74.686C359.392,74.829 358.363,74.831 357.5,74.651ZM367.193,71.681C366.193,72.806 364.308,73.76 362.32,74.304C362.287,73.514 362.248,72.724 362.203,71.936C363.476,71.638 364.436,70.903 364.936,69.957C365.649,68.61 365.364,67.032 364.212,65.937C363.809,65.554 363.218,65.59 362.893,66.019C362.569,66.448 362.633,67.107 363.037,67.49C363.469,67.9 363.56,68.352 363.306,68.831C363.11,69.202 362.69,69.577 362.067,69.8C361.806,66.101 361.419,62.434 360.907,58.826C362.104,58.856 363.334,59.327 364.466,60.205C366.247,61.585 367.513,63.803 367.851,66.139C368.108,67.913 368.319,70.415 367.193,71.681Z" style="fill:white;fill-rule:nonzero;"/>
            </g>
            <g transform="matrix(1,0,0,1,252.65,359.246)">
                <path d="M420.845,76.161C420.858,76.048 420.866,75.937 420.871,75.827L420.882,75.827L420.706,63.237C421.013,62.307 421.177,60.927 421.095,60.064C419.743,59.845 418.263,59.923 416.851,60.06C416.273,60.116 410.415,60.594 410.415,60.594C410.348,61.855 410.444,63.559 410.444,63.559C410.487,63.589 410.535,63.613 410.583,63.637L410.746,75.302C410.498,75.014 410.149,74.81 409.671,74.729C407.847,74.348 406.238,75.002 405.547,75.894C404.237,77.585 405.368,79.635 406.923,79.93C408.567,80.242 410.961,79.608 411.207,77.472C411.22,77.359 411.228,77.248 411.233,77.138L411.243,77.137L411.088,66.064C412.035,65.868 413.865,65.814 415.642,65.763C417.878,65.698 419.428,65.637 420.261,65.427L420.381,73.991C420.133,73.703 419.784,73.499 419.306,73.418C417.482,73.037 415.873,73.691 415.182,74.583C413.872,76.275 415.004,78.324 416.558,78.62C418.205,78.931 420.599,78.297 420.845,76.161ZM415.653,64.749C413.842,64.802 412.12,64.852 411.076,65.044L411.058,63.78C412.057,63.931 413.515,63.465 414.342,63.387C416.337,63.2 418.264,63.386 420.234,63.329L420.249,64.394C419.627,64.632 417.435,64.697 415.653,64.749Z" style="fill:white;fill-rule:nonzero;"/>
            </g>
            <g transform="matrix(1,0,0,1,199.058,358.657)">
                <path d="M393.48,55.737C393.493,55.624 393.501,55.513 393.506,55.403L393.516,55.402L393.34,42.812C393.648,41.882 393.811,40.502 393.729,39.639C392.378,39.42 390.897,39.498 389.486,39.635C388.908,39.691 383.05,40.169 383.05,40.169C382.983,41.43 383.079,43.134 383.079,43.134C383.122,43.164 383.17,43.188 383.218,43.212L383.382,54.877C383.134,54.589 382.785,54.384 382.307,54.304C380.483,53.923 378.874,54.577 378.183,55.469C376.873,57.161 378.004,59.21 379.559,59.506C381.203,59.818 383.597,59.184 383.843,57.048C383.856,56.935 383.864,56.824 383.869,56.714L383.879,56.713L383.724,45.64C384.671,45.444 386.501,45.39 388.278,45.339C390.514,45.274 392.064,45.213 392.897,45.003L393.017,53.567C392.769,53.279 392.42,53.074 391.942,52.994C390.118,52.613 388.509,53.267 387.818,54.159C386.508,55.851 387.639,57.9 389.194,58.196C390.84,58.507 393.234,57.873 393.48,55.737ZM388.288,44.325C386.477,44.378 384.755,44.428 383.711,44.62L383.693,43.356C384.692,43.507 386.15,43.041 386.977,42.963C388.972,42.776 390.899,42.962 392.87,42.905L392.885,43.97C392.262,44.208 390.069,44.273 388.288,44.325Z" style="fill:white;fill-rule:nonzero;"/>
            </g>
            <g transform="matrix(1,0,0,1,210.542,357.774)">
                <path d="M293.431,44.271L293.583,43.572L293.066,43.492C291.876,43.309 290.598,43.112 289.289,42.935C289.232,41.833 289.24,40.694 289.281,39.57C290.49,39.737 291.671,39.918 292.775,40.088L293.291,40.167L293.444,39.468L292.929,39.389C291.788,39.213 290.565,39.026 289.312,38.854C289.362,37.828 289.432,36.824 289.499,35.885L289.53,35.445L288.685,35.403L288.654,35.843C288.589,36.761 288.52,37.74 288.47,38.743C287.163,38.575 285.835,38.433 284.535,38.347C284.574,37.713 284.618,37.094 284.66,36.501L284.691,36.061L283.846,36.019L283.815,36.459C283.773,37.05 283.729,37.668 283.69,38.299C282.438,38.241 281.225,38.242 280.102,38.335L280.186,39.042C281.264,38.952 282.436,38.952 283.649,39.008C283.589,40.117 283.551,41.261 283.566,42.39C282.408,42.344 281.286,42.351 280.242,42.438L280.326,43.145C281.344,43.06 282.444,43.055 283.584,43.102C283.636,44.572 283.792,45.998 284.131,47.263L284.958,47.107C284.637,45.909 284.486,44.553 284.433,43.146C285.763,43.229 287.132,43.374 288.481,43.547C288.563,44.638 288.714,45.689 288.971,46.646L289.797,46.49C289.563,45.617 289.421,44.659 289.34,43.66C290.578,43.83 291.787,44.015 292.916,44.189L293.431,44.271ZM284.413,42.434C284.396,41.31 284.434,40.167 284.494,39.057C285.793,39.144 287.126,39.288 288.439,39.458C288.396,40.578 288.384,41.716 288.436,42.824C287.096,42.654 285.737,42.514 284.413,42.434Z" style="fill:white;fill-rule:nonzero;"/>
            </g>
            <path d="M427.579,386.204C426.563,384.508 424.049,383.81 422.31,383.748C420.405,383.68 418.495,384.161 416.591,383.742C415.066,383.406 413.918,382.196 412.916,380.695L412.061,380.761L415.488,402.843C414.971,402.387 414.287,402.07 413.398,401.962C409.984,401.429 407.196,402.569 406.138,404.052C404.131,406.865 406.66,410.146 409.563,410.552C412.634,410.982 416.857,409.838 416.822,406.352C416.82,406.168 416.809,405.987 416.794,405.807L416.813,405.806L414.855,393.186C415.364,393.445 416.146,393.32 416.663,393.3C417.707,393.258 418.732,393.059 419.676,392.686C420.604,392.319 421.295,391.871 422.151,391.354C423.625,390.464 424.939,390.38 426.409,391.218C426.854,391.472 427.09,391.582 427.304,392.064C427.531,392.578 427.665,393.145 427.428,393.45C428.308,392.669 427.353,391.102 426.643,390.598C425.465,389.763 424.056,389.547 422.756,389.681C421.923,389.767 420.594,390.109 419.802,390.333C419.148,390.518 418.361,390.843 417.619,390.897C416.791,390.957 416.287,391.11 415.49,390.693C415.168,390.524 414.667,390.185 414.331,389.805L413.951,387.359C414.264,387.956 414.863,388.294 415.306,388.471C416.096,388.789 416.95,388.418 417.705,388.225C419.12,387.863 420.403,387.354 421.753,386.844C423.022,386.364 425.825,385.784 426.883,387.368C427.421,388.173 426.91,388.888 426.831,389.642C427.918,389.005 428.303,387.413 427.579,386.204Z" style="fill:white;fill-rule:nonzero;"/>
            <path d="M277.31,393.816L277.461,393.186L276.95,393.114C275.775,392.949 274.512,392.772 273.219,392.612C273.162,391.619 273.17,390.593 273.211,389.58C274.406,389.73 275.572,389.893 276.663,390.046L277.172,390.118L277.323,389.489L276.814,389.417C275.687,389.258 274.479,389.09 273.241,388.935C273.29,388.01 273.36,387.106 273.426,386.26L273.457,385.864L272.622,385.826L272.591,386.222C272.526,387.049 272.458,387.932 272.409,388.835C271.118,388.684 269.806,388.556 268.522,388.478C268.561,387.907 268.604,387.349 268.646,386.815L268.677,386.419L267.842,386.381L267.811,386.777C267.769,387.31 267.726,387.866 267.688,388.435C266.451,388.383 265.253,388.383 264.144,388.468L264.227,389.105C265.292,389.024 266.45,389.024 267.648,389.075C267.588,390.075 267.551,391.105 267.566,392.122C266.422,392.081 265.314,392.087 264.282,392.165L264.365,392.802C265.37,392.726 266.457,392.721 267.583,392.764C267.635,394.089 267.789,395.373 268.123,396.513L268.939,396.373C268.622,395.294 268.472,394.071 268.42,392.804C269.734,392.879 271.086,393.009 272.419,393.165C272.5,394.148 272.649,395.095 272.903,395.958L273.719,395.818C273.488,395.032 273.348,394.168 273.267,393.268C274.49,393.421 275.684,393.588 276.799,393.745L277.31,393.816ZM268.402,392.161C268.385,391.148 268.423,390.119 268.482,389.118C269.765,389.196 271.082,389.326 272.378,389.479C272.335,390.488 272.324,391.514 272.375,392.512C271.053,392.36 269.71,392.233 268.402,392.161Z" style="fill:white;fill-rule:nonzero;"/>
            <path d="M253.117,413.624C252.307,413.719 251.375,413.767 250.303,413.755C248.37,413.733 244.674,413.12 242.985,411.566C242.229,410.87 241.945,410.075 242.14,409.201C242.464,407.751 243.415,406.595 244.89,405.857C247.016,404.794 250.143,404.614 253.933,405.334C257.19,405.953 258.637,407.643 258.234,410.357C258.04,411.667 256.939,413.175 253.117,413.624ZM248.16,405.908C247.153,406.026 246.277,406.267 245.551,406.63C244.348,407.232 243.6,408.149 243.33,409.356C243.195,409.96 243.386,410.489 243.913,410.974C245.267,412.22 248.475,412.81 250.32,412.83C254.514,412.877 256.773,412.009 257.034,410.252C257.261,408.723 257.081,406.883 253.641,406.229C251.552,405.833 249.702,405.727 248.16,405.908Z" style="fill:white;fill-rule:nonzero;"/>
            <path d="M310.293,392.696L309.381,392.689L312.165,411.758C311.624,411.274 310.903,410.91 309.958,410.732C306.334,409.934 303.339,410.808 302.18,412.157C299.981,414.716 302.602,418.101 305.685,418.734C308.946,419.404 313.469,418.644 313.509,415.266C313.511,415.088 313.504,414.911 313.491,414.736L313.511,414.736L310.293,392.696Z" style="fill:white;fill-rule:nonzero;"/>
            <path d="M290.258,416.098C290.113,414.626 288.567,413.464 287.354,412.958C286.026,412.404 284.509,412.239 283.301,411.436C282.334,410.794 281.93,409.631 281.728,408.3L281.099,408.12L276.044,424.687C275.832,424.226 275.454,423.82 274.86,423.507C272.62,422.223 270.257,422.291 269.004,423.062C266.627,424.524 267.309,427.521 269.229,428.58C271.26,429.7 274.643,430.009 275.8,427.529C275.861,427.398 275.915,427.267 275.965,427.135L275.979,427.139L278.868,417.671C279.141,417.99 279.738,418.109 280.112,418.231C280.866,418.479 281.661,418.609 282.457,418.595C283.239,418.581 283.882,418.447 284.663,418.307C286.01,418.067 286.97,418.357 287.728,419.341C287.958,419.639 288.088,419.78 288.076,420.178C288.063,420.602 287.966,421.04 287.694,421.194C288.583,420.874 288.437,419.509 288.104,418.964C287.552,418.06 286.626,417.532 285.659,417.282C285.039,417.122 283.981,417.012 283.343,416.96C282.817,416.917 282.148,416.939 281.604,416.781C280.996,416.604 280.587,416.579 280.163,416.071C279.992,415.866 279.751,415.492 279.642,415.133L280.202,413.298C280.221,413.804 280.532,414.203 280.786,414.446C281.239,414.881 281.97,414.845 282.571,414.908C283.697,415.027 284.779,415.007 285.91,415.003C286.973,415 289.157,415.332 289.37,416.736C289.478,417.449 288.874,417.821 288.562,418.335C289.549,418.174 290.361,417.147 290.258,416.098Z" style="fill:white;fill-rule:nonzero;"/>
            <path d="M352.651,413.319C352.228,410.656 350.709,408.226 348.484,406.653C346.965,405.579 345.295,405.033 343.656,405.052C343.537,404.353 343.411,403.656 343.28,402.962C343.033,401.656 342.626,400.261 342.195,398.785C342.138,398.591 342.081,398.396 342.025,398.201C342.454,398.055 343.033,397.822 343.905,397.438C345.697,396.648 346.639,394.158 346.364,390.94C346.189,388.896 345.612,387.168 344.648,385.803C344.009,384.899 343.298,384.687 342.815,384.668C342.799,384.667 342.783,384.667 342.768,384.667C341.909,384.655 341.069,385.215 340.27,386.331C338.183,389.245 338.748,393.062 339.717,396.734C339.296,396.826 338.703,396.991 337.771,397.311C334.485,398.441 331.741,401.283 330.43,404.912C329.094,408.609 329.419,412.629 331.343,416.231C332.601,418.586 336.227,422.253 340.351,423.035C341.321,423.219 342.437,423.234 343.594,423.112C343.67,426.062 343.56,431.032 340.969,431.837C339.201,432.386 336.702,432.103 335.029,431.165C334.047,430.614 333.419,429.898 333.163,429.036C332.83,427.916 332.967,426.626 333.496,425.897C333.844,425.417 334.335,425.186 334.996,425.192L335.009,425.192C335.937,425.205 336.767,425.688 337.23,426.486C337.587,427.102 337.646,427.79 337.38,428.24C337.155,428.62 336.692,428.846 336.047,428.899C336.073,428.794 336.11,428.666 336.162,428.511C336.322,428.028 336.057,427.484 335.572,427.296C335.086,427.109 334.563,427.347 334.402,427.831C334.179,428.506 333.967,429.368 334.315,430.038C334.487,430.368 334.773,430.612 335.121,430.725C335.192,430.748 335.264,430.762 335.338,430.768C337.633,430.945 338.608,429.903 338.984,429.265C339.593,428.234 339.529,426.829 338.815,425.599C337.997,424.189 336.549,423.336 334.938,423.314L334.917,423.314C333.681,423.303 332.667,423.794 331.985,424.734C331.121,425.924 330.888,427.791 331.392,429.489C331.796,430.85 332.767,431.994 334.2,432.797C335.548,433.552 337.269,433.967 338.919,433.99C339.863,434.003 340.783,433.888 341.597,433.635C345.523,432.417 345.55,426.299 345.438,422.809C347.876,422.267 350.234,421.194 351.526,419.87C353.175,418.174 352.994,415.478 352.651,413.319ZM343.269,416.968C342.658,416.897 341.968,416.717 341.202,416.386C339.282,415.556 338.146,413.82 338.239,411.855C338.317,410.193 339.398,408.053 342.145,407.206C342.642,410.415 343.018,413.677 343.269,416.968ZM341.788,387.487C342.325,386.737 342.708,386.544 342.839,386.546L342.842,386.546C342.895,386.548 343.018,386.642 343.161,386.844C343.917,387.914 344.373,389.315 344.518,391.006C344.719,393.356 344.145,395.247 343.091,395.712C342.354,396.037 341.862,396.238 341.509,396.365C340.624,393.028 340.133,389.797 341.788,387.487ZM340.597,421.19C337.297,420.565 334.042,417.429 332.961,415.406C331.3,412.298 331.02,408.829 332.173,405.639C333.306,402.502 335.652,400.055 338.447,399.093C339.338,398.787 339.867,398.641 340.227,398.565C340.291,398.788 340.356,399.009 340.42,399.229C340.837,400.658 341.231,402.008 341.46,403.221C341.592,403.916 341.718,404.615 341.838,405.317C338.654,406.18 336.532,408.632 336.389,411.667C336.257,414.471 337.852,416.939 340.553,418.107C341.567,418.545 342.524,418.779 343.4,418.85C343.449,419.639 343.49,420.429 343.525,421.22C342.466,421.35 341.449,421.352 340.597,421.19ZM350.172,418.514C349.184,419.527 347.322,420.387 345.359,420.877C345.326,420.165 345.287,419.453 345.243,418.743C346.5,418.475 347.448,417.812 347.942,416.96C348.646,415.746 348.365,414.324 347.227,413.338C346.828,412.993 346.245,413.026 345.925,413.412C345.605,413.799 345.668,414.392 346.067,414.738C346.494,415.108 346.583,415.514 346.333,415.947C346.139,416.281 345.724,416.619 345.109,416.82C344.852,413.487 344.469,410.183 343.963,406.932C345.145,406.959 346.36,407.384 347.479,408.175C349.238,409.418 350.489,411.417 350.823,413.522C351.076,415.118 351.284,417.373 350.172,418.514Z" style="fill:white;fill-rule:nonzero;"/>
            <path d="M395.957,418.115C395.97,418.013 395.978,417.913 395.983,417.814L395.993,417.814L395.819,406.47C396.123,405.632 396.285,404.388 396.204,403.612C394.869,403.414 393.407,403.485 392.012,403.608C391.441,403.659 385.655,404.089 385.655,404.089C385.589,405.225 385.684,406.761 385.684,406.761C385.727,406.788 385.774,406.809 385.822,406.831L385.983,417.341C385.738,417.082 385.393,416.897 384.922,416.825C383.121,416.482 381.531,417.071 380.849,417.875C379.555,419.399 380.672,421.246 382.208,421.512C383.832,421.793 386.197,421.222 386.44,419.297C386.453,419.195 386.46,419.095 386.466,418.996L386.476,418.995L386.323,409.018C387.258,408.842 389.066,408.793 390.822,408.746C393.031,408.687 394.561,408.632 395.385,408.443L395.503,416.159C395.258,415.9 394.913,415.715 394.441,415.643C392.64,415.3 391.05,415.889 390.368,416.693C389.074,418.217 390.192,420.064 391.727,420.33C393.349,420.611 395.714,420.04 395.957,418.115ZM390.828,407.832C389.04,407.88 387.338,407.925 386.307,408.098L386.289,406.959C387.276,407.095 388.716,406.675 389.532,406.605C391.503,406.437 393.406,406.604 395.352,406.552L395.367,407.512C394.754,407.728 392.588,407.786 390.828,407.832Z" style="fill:white;fill-rule:nonzero;"/>
            <path d="M376.138,404.148C376.151,404.046 376.159,403.946 376.164,403.847L376.174,403.846L376,392.502C376.304,391.664 376.465,390.42 376.384,389.643C375.049,389.445 373.587,389.516 372.192,389.639C371.621,389.689 365.835,390.12 365.835,390.12C365.769,391.256 365.864,392.792 365.864,392.792C365.907,392.819 365.954,392.841 366.002,392.862L366.163,403.372C365.918,403.113 365.573,402.928 365.102,402.856C363.3,402.513 361.711,403.102 361.028,403.906C359.734,405.43 360.852,407.277 362.387,407.543C364.011,407.824 366.376,407.253 366.619,405.328C366.632,405.226 366.64,405.126 366.645,405.027L366.655,405.026L366.502,395.049C367.437,394.873 369.245,394.824 371.001,394.777C373.21,394.718 374.74,394.663 375.564,394.474L375.682,402.19C375.437,401.931 375.092,401.746 374.621,401.674C372.82,401.331 371.23,401.92 370.548,402.724C369.254,404.248 370.372,406.095 371.907,406.361C373.53,406.644 375.895,406.072 376.138,404.148ZM371.009,393.865C369.22,393.912 367.519,393.958 366.488,394.131L366.47,392.992C367.457,393.128 368.897,392.708 369.713,392.638C371.684,392.47 373.587,392.637 375.534,392.585L375.549,393.545C374.934,393.76 372.769,393.818 371.009,393.865Z" style="fill:white;fill-rule:nonzero;"/>
        </g>
        <g transform="matrix(1,0,0,0.979203,-210.851,-21.3981)">
            <g>
                <g transform="matrix(2.08984,0,0,1,-251.07,0)">
                    <path d="M230.373,397.595L448.957,397.595" style="fill:none;fill-rule:nonzero;stroke:white;stroke-width:0.61px;"/>
                </g>
                <g transform="matrix(2.08984,0,0,1,-251.07,0)">
                    <path d="M230.373,404.828L448.957,404.828" style="fill:none;fill-rule:nonzero;stroke:white;stroke-width:0.61px;"/>
                </g>
                <g transform="matrix(2.08984,0,0,1,-251.07,0)">
                    <path d="M230.373,412.061L448.957,412.061" style="fill:none;fill-rule:nonzero;stroke:white;stroke-width:0.61px;"/>
                </g>
                <g transform="matrix(2.08984,0,0,1,-251.07,0)">
                    <path d="M230.373,419.294L448.957,419.294" style="fill:none;fill-rule:nonzero;stroke:white;stroke-width:0.61px;"/>
                </g>
                <g transform="matrix(2.08984,0,0,1,-251.07,0)">
                    <path d="M230.373,426.527L448.957,426.527" style="fill:none;fill-rule:nonzero;stroke:white;stroke-width:0.61px;"/>
                </g>
            </g>
            <path d="M439.541,402.194L438.851,402.149L439.895,416.698C439.513,416.308 438.988,416.002 438.282,415.826C435.584,415.064 433.27,415.595 432.318,416.565C430.511,418.405 432.306,421.081 434.604,421.694C437.034,422.343 440.499,421.965 440.717,419.411C440.728,419.276 440.733,419.142 440.733,419.009L440.748,419.01L439.541,402.194Z" style="fill:white;fill-rule:nonzero;"/>
            <g transform="matrix(1,0,0,1,89.5171,-9.1284)">
                <path d="M439.541,402.194L438.851,402.149L439.895,416.698C439.513,416.308 438.988,416.002 438.282,415.826C435.584,415.064 433.27,415.595 432.318,416.565C430.511,418.405 432.306,421.081 434.604,421.694C437.034,422.343 440.499,421.965 440.717,419.411C440.728,419.276 440.733,419.142 440.733,419.009L440.748,419.01L439.541,402.194Z" style="fill:white;fill-rule:nonzero;"/>
            </g>
            <g transform="matrix(1,0,0,1,77.1496,-9.71731)">
                <path d="M439.541,402.194L438.851,402.149L439.895,416.698C439.513,416.308 438.988,416.002 438.282,415.826C435.584,415.064 433.27,415.595 432.318,416.565C430.511,418.405 432.306,421.081 434.604,421.694C437.034,422.343 440.499,421.965 440.717,419.411C440.728,419.276 440.733,419.142 440.733,419.009L440.748,419.01L439.541,402.194Z" style="fill:white;fill-rule:nonzero;"/>
            </g>
            <g transform="matrix(1,0,0,1,101.59,-9.42284)">
                <path d="M439.541,402.194L438.851,402.149L439.895,416.698C439.513,416.308 438.988,416.002 438.282,415.826C435.584,415.064 433.27,415.595 432.318,416.565C430.511,418.405 432.306,421.081 434.604,421.694C437.034,422.343 440.499,421.965 440.717,419.411C440.728,419.276 440.733,419.142 440.733,419.009L440.748,419.01L439.541,402.194Z" style="fill:white;fill-rule:nonzero;"/>
            </g>
            <g transform="matrix(1,0,0,1,185.218,345.112)">
                <path d="M420.845,76.161C420.858,76.048 420.866,75.937 420.871,75.827L420.882,75.827L420.706,63.237C421.013,62.307 421.177,60.927 421.095,60.064C419.743,59.845 418.263,59.923 416.851,60.06C416.273,60.116 410.415,60.594 410.415,60.594C410.348,61.855 410.444,63.559 410.444,63.559C410.487,63.589 410.535,63.613 410.583,63.637L410.746,75.302C410.498,75.014 410.149,74.81 409.671,74.729C407.847,74.348 406.238,75.002 405.547,75.894C404.237,77.585 405.368,79.635 406.923,79.93C408.567,80.242 410.961,79.608 411.207,77.472C411.22,77.359 411.228,77.248 411.233,77.138L411.243,77.137L411.088,66.064C412.035,65.868 413.865,65.814 415.642,65.763C417.878,65.698 419.428,65.637 420.261,65.427L420.381,73.991C420.133,73.703 419.784,73.499 419.306,73.418C417.482,73.037 415.873,73.691 415.182,74.583C413.872,76.275 415.004,78.324 416.558,78.62C418.205,78.931 420.599,78.297 420.845,76.161ZM415.653,64.749C413.842,64.802 412.12,64.852 411.076,65.044L411.058,63.78C412.057,63.931 413.515,63.465 414.342,63.387C416.337,63.2 418.264,63.386 420.234,63.329L420.249,64.394C419.627,64.632 417.435,64.697 415.653,64.749Z" style="fill:white;fill-rule:nonzero;"/>
            </g>
            <g transform="matrix(1,0,0,1,199.058,358.657)">
                <path d="M393.48,55.737C393.493,55.624 393.501,55.513 393.506,55.403L393.516,55.402L393.34,42.812C393.648,41.882 393.811,40.502 393.729,39.639C392.378,39.42 390.897,39.498 389.486,39.635C388.908,39.691 383.05,40.169 383.05,40.169C382.983,41.43 383.079,43.134 383.079,43.134C383.122,43.164 383.17,43.188 383.218,43.212L383.382,54.877C383.134,54.589 382.785,54.384 382.307,54.304C380.483,53.923 378.874,54.577 378.183,55.469C376.873,57.161 378.004,59.21 379.559,59.506C381.203,59.818 383.597,59.184 383.843,57.048C383.856,56.935 383.864,56.824 383.869,56.714L383.879,56.713L383.724,45.64C384.671,45.444 386.501,45.39 388.278,45.339C390.514,45.274 392.064,45.213 392.897,45.003L393.017,53.567C392.769,53.279 392.42,53.074 391.942,52.994C390.118,52.613 388.509,53.267 387.818,54.159C386.508,55.851 387.639,57.9 389.194,58.196C390.84,58.507 393.234,57.873 393.48,55.737ZM388.288,44.325C386.477,44.378 384.755,44.428 383.711,44.62L383.693,43.356C384.692,43.507 386.15,43.041 386.977,42.963C388.972,42.776 390.899,42.962 392.87,42.905L392.885,43.97C392.262,44.208 390.069,44.273 388.288,44.325Z" style="fill:white;fill-rule:nonzero;"/>
            </g>
            <g transform="matrix(1,0,0,1,16.1955,356.596)">
                <path d="M293.431,44.271L293.583,43.572L293.066,43.492C291.876,43.309 290.598,43.112 289.289,42.935C289.232,41.833 289.24,40.694 289.281,39.57C290.49,39.737 291.671,39.918 292.775,40.088L293.291,40.167L293.444,39.468L292.929,39.389C291.788,39.213 290.565,39.026 289.312,38.854C289.362,37.828 289.432,36.824 289.499,35.885L289.53,35.445L288.685,35.403L288.654,35.843C288.589,36.761 288.52,37.74 288.47,38.743C287.163,38.575 285.835,38.433 284.535,38.347C284.574,37.713 284.618,37.094 284.66,36.501L284.691,36.061L283.846,36.019L283.815,36.459C283.773,37.05 283.729,37.668 283.69,38.299C282.438,38.241 281.225,38.242 280.102,38.335L280.186,39.042C281.264,38.952 282.436,38.952 283.649,39.008C283.589,40.117 283.551,41.261 283.566,42.39C282.408,42.344 281.286,42.351 280.242,42.438L280.326,43.145C281.344,43.06 282.444,43.055 283.584,43.102C283.636,44.572 283.792,45.998 284.131,47.263L284.958,47.107C284.637,45.909 284.486,44.553 284.433,43.146C285.763,43.229 287.132,43.374 288.481,43.547C288.563,44.638 288.714,45.689 288.971,46.646L289.797,46.49C289.563,45.617 289.421,44.659 289.34,43.66C290.578,43.83 291.787,44.015 292.916,44.189L293.431,44.271ZM284.413,42.434C284.396,41.31 284.434,40.167 284.494,39.057C285.793,39.144 287.126,39.288 288.439,39.458C288.396,40.578 288.384,41.716 288.436,42.824C287.096,42.654 285.737,42.514 284.413,42.434Z" style="fill:white;fill-rule:nonzero;"/>
            </g>
            <g transform="matrix(1,0,0,1,-78.033,-1.17787)">
                <path d="M427.579,386.204C426.563,384.508 424.049,383.81 422.31,383.748C420.405,383.68 418.495,384.161 416.591,383.742C415.066,383.406 413.918,382.196 412.916,380.695L412.061,380.761L415.488,402.843C414.971,402.387 414.287,402.07 413.398,401.962C409.984,401.429 407.196,402.569 406.138,404.052C404.131,406.865 406.66,410.146 409.563,410.552C412.634,410.982 416.857,409.838 416.822,406.352C416.82,406.168 416.809,405.987 416.794,405.807L416.813,405.806L414.855,393.186C415.364,393.445 416.146,393.32 416.663,393.3C417.707,393.258 418.732,393.059 419.676,392.686C420.604,392.319 421.295,391.871 422.151,391.354C423.625,390.464 424.939,390.38 426.409,391.218C426.854,391.472 427.09,391.582 427.304,392.064C427.531,392.578 427.665,393.145 427.428,393.45C428.308,392.669 427.353,391.102 426.643,390.598C425.465,389.763 424.056,389.547 422.756,389.681C421.923,389.767 420.594,390.109 419.802,390.333C419.148,390.518 418.361,390.843 417.619,390.897C416.791,390.957 416.287,391.11 415.49,390.693C415.168,390.524 414.667,390.185 414.331,389.805L413.951,387.359C414.264,387.956 414.863,388.294 415.306,388.471C416.096,388.789 416.95,388.418 417.705,388.225C419.12,387.863 420.403,387.354 421.753,386.844C423.022,386.364 425.825,385.784 426.883,387.368C427.421,388.173 426.91,388.888 426.831,389.642C427.918,389.005 428.303,387.413 427.579,386.204Z" style="fill:white;fill-rule:nonzero;"/>
            </g>
            <g transform="matrix(1,0,0,1,406.36,-2.65018)">
                <path d="M277.31,393.816L277.461,393.186L276.95,393.114C275.775,392.949 274.512,392.772 273.219,392.612C273.162,391.619 273.17,390.593 273.211,389.58C274.406,389.73 275.572,389.893 276.663,390.046L277.172,390.118L277.323,389.489L276.814,389.417C275.687,389.258 274.479,389.09 273.241,388.935C273.29,388.01 273.36,387.106 273.426,386.26L273.457,385.864L272.622,385.826L272.591,386.222C272.526,387.049 272.458,387.932 272.409,388.835C271.118,388.684 269.806,388.556 268.522,388.478C268.561,387.907 268.604,387.349 268.646,386.815L268.677,386.419L267.842,386.381L267.811,386.777C267.769,387.31 267.726,387.866 267.688,388.435C266.451,388.383 265.253,388.383 264.144,388.468L264.227,389.105C265.292,389.024 266.45,389.024 267.648,389.075C267.588,390.075 267.551,391.105 267.566,392.122C266.422,392.081 265.314,392.087 264.282,392.165L264.365,392.802C265.37,392.726 266.457,392.721 267.583,392.764C267.635,394.089 267.789,395.373 268.123,396.513L268.939,396.373C268.622,395.294 268.472,394.071 268.42,392.804C269.734,392.879 271.086,393.009 272.419,393.165C272.5,394.148 272.649,395.095 272.903,395.958L273.719,395.818C273.488,395.032 273.348,394.168 273.267,393.268C274.49,393.421 275.684,393.588 276.799,393.745L277.31,393.816ZM268.402,392.161C268.385,391.148 268.423,390.119 268.482,389.118C269.765,389.196 271.082,389.326 272.378,389.479C272.335,390.488 272.324,391.514 272.375,392.512C271.053,392.36 269.71,392.233 268.402,392.161Z" style="fill:white;fill-rule:nonzero;"/>
            </g>
            <path d="M253.117,413.624C252.307,413.719 251.375,413.767 250.303,413.755C248.37,413.733 244.674,413.12 242.985,411.566C242.229,410.87 241.945,410.075 242.14,409.201C242.464,407.751 243.415,406.595 244.89,405.857C247.016,404.794 250.143,404.614 253.933,405.334C257.19,405.953 258.637,407.643 258.234,410.357C258.04,411.667 256.939,413.175 253.117,413.624ZM248.16,405.908C247.153,406.026 246.277,406.267 245.551,406.63C244.348,407.232 243.6,408.149 243.33,409.356C243.195,409.96 243.386,410.489 243.913,410.974C245.267,412.22 248.475,412.81 250.32,412.83C254.514,412.877 256.773,412.009 257.034,410.252C257.261,408.723 257.081,406.883 253.641,406.229C251.552,405.833 249.702,405.727 248.16,405.908Z" style="fill:white;fill-rule:nonzero;"/>
            <g transform="matrix(1,0,0,1,42.1084,13.8398)">
                <path d="M310.293,392.696L309.381,392.689L312.165,411.758C311.624,411.274 310.903,410.91 309.958,410.732C306.334,409.934 303.339,410.808 302.18,412.157C299.981,414.716 302.602,418.101 305.685,418.734C308.946,419.404 313.469,418.644 313.509,415.266C313.511,415.088 313.504,414.911 313.491,414.736L313.511,414.736L310.293,392.696Z" style="fill:white;fill-rule:nonzero;"/>
            </g>
            <g transform="matrix(1,0,0,1,383.687,5.8893)">
                <path d="M290.258,416.098C290.113,414.626 288.567,413.464 287.354,412.958C286.026,412.404 284.509,412.239 283.301,411.436C282.334,410.794 281.93,409.631 281.728,408.3L281.099,408.12L276.044,424.687C275.832,424.226 275.454,423.82 274.86,423.507C272.62,422.223 270.257,422.291 269.004,423.062C266.627,424.524 267.309,427.521 269.229,428.58C271.26,429.7 274.643,430.009 275.8,427.529C275.861,427.398 275.915,427.267 275.965,427.135L275.979,427.139L278.868,417.671C279.141,417.99 279.738,418.109 280.112,418.231C280.866,418.479 281.661,418.609 282.457,418.595C283.239,418.581 283.882,418.447 284.663,418.307C286.01,418.067 286.97,418.357 287.728,419.341C287.958,419.639 288.088,419.78 288.076,420.178C288.063,420.602 287.966,421.04 287.694,421.194C288.583,420.874 288.437,419.509 288.104,418.964C287.552,418.06 286.626,417.532 285.659,417.282C285.039,417.122 283.981,417.012 283.343,416.96C282.817,416.917 282.148,416.939 281.604,416.781C280.996,416.604 280.587,416.579 280.163,416.071C279.992,415.866 279.751,415.492 279.642,415.133L280.202,413.298C280.221,413.804 280.532,414.203 280.786,414.446C281.239,414.881 281.97,414.845 282.571,414.908C283.697,415.027 284.779,415.007 285.91,415.003C286.973,415 289.157,415.332 289.37,416.736C289.478,417.449 288.874,417.821 288.562,418.335C289.549,418.174 290.361,417.147 290.258,416.098Z" style="fill:white;fill-rule:nonzero;"/>
            </g>
            <g transform="matrix(1,0,0,1,115.43,-8.245)">
                <path d="M352.651,413.319C352.228,410.656 350.709,408.226 348.484,406.653C346.965,405.579 345.295,405.033 343.656,405.052C343.537,404.353 343.411,403.656 343.28,402.962C343.033,401.656 342.626,400.261 342.195,398.785C342.138,398.591 342.081,398.396 342.025,398.201C342.454,398.055 343.033,397.822 343.905,397.438C345.697,396.648 346.639,394.158 346.364,390.94C346.189,388.896 345.612,387.168 344.648,385.803C344.009,384.899 343.298,384.687 342.815,384.668C342.799,384.667 342.783,384.667 342.768,384.667C341.909,384.655 341.069,385.215 340.27,386.331C338.183,389.245 338.748,393.062 339.717,396.734C339.296,396.826 338.703,396.991 337.771,397.311C334.485,398.441 331.741,401.283 330.43,404.912C329.094,408.609 329.419,412.629 331.343,416.231C332.601,418.586 336.227,422.253 340.351,423.035C341.321,423.219 342.437,423.234 343.594,423.112C343.67,426.062 343.56,431.032 340.969,431.837C339.201,432.386 336.702,432.103 335.029,431.165C334.047,430.614 333.419,429.898 333.163,429.036C332.83,427.916 332.967,426.626 333.496,425.897C333.844,425.417 334.335,425.186 334.996,425.192L335.009,425.192C335.937,425.205 336.767,425.688 337.23,426.486C337.587,427.102 337.646,427.79 337.38,428.24C337.155,428.62 336.692,428.846 336.047,428.899C336.073,428.794 336.11,428.666 336.162,428.511C336.322,428.028 336.057,427.484 335.572,427.296C335.086,427.109 334.563,427.347 334.402,427.831C334.179,428.506 333.967,429.368 334.315,430.038C334.487,430.368 334.773,430.612 335.121,430.725C335.192,430.748 335.264,430.762 335.338,430.768C337.633,430.945 338.608,429.903 338.984,429.265C339.593,428.234 339.529,426.829 338.815,425.599C337.997,424.189 336.549,423.336 334.938,423.314L334.917,423.314C333.681,423.303 332.667,423.794 331.985,424.734C331.121,425.924 330.888,427.791 331.392,429.489C331.796,430.85 332.767,431.994 334.2,432.797C335.548,433.552 337.269,433.967 338.919,433.99C339.863,434.003 340.783,433.888 341.597,433.635C345.523,432.417 345.55,426.299 345.438,422.809C347.876,422.267 350.234,421.194 351.526,419.87C353.175,418.174 352.994,415.478 352.651,413.319ZM343.269,416.968C342.658,416.897 341.968,416.717 341.202,416.386C339.282,415.556 338.146,413.82 338.239,411.855C338.317,410.193 339.398,408.053 342.145,407.206C342.642,410.415 343.018,413.677 343.269,416.968ZM341.788,387.487C342.325,386.737 342.708,386.544 342.839,386.546L342.842,386.546C342.895,386.548 343.018,386.642 343.161,386.844C343.917,387.914 344.373,389.315 344.518,391.006C344.719,393.356 344.145,395.247 343.091,395.712C342.354,396.037 341.862,396.238 341.509,396.365C340.624,393.028 340.133,389.797 341.788,387.487ZM340.597,421.19C337.297,420.565 334.042,417.429 332.961,415.406C331.3,412.298 331.02,408.829 332.173,405.639C333.306,402.502 335.652,400.055 338.447,399.093C339.338,398.787 339.867,398.641 340.227,398.565C340.291,398.788 340.356,399.009 340.42,399.229C340.837,400.658 341.231,402.008 341.46,403.221C341.592,403.916 341.718,404.615 341.838,405.317C338.654,406.18 336.532,408.632 336.389,411.667C336.257,414.471 337.852,416.939 340.553,418.107C341.567,418.545 342.524,418.779 343.4,418.85C343.449,419.639 343.49,420.429 343.525,421.22C342.466,421.35 341.449,421.352 340.597,421.19ZM350.172,418.514C349.184,419.527 347.322,420.387 345.359,420.877C345.326,420.165 345.287,419.453 345.243,418.743C346.5,418.475 347.448,417.812 347.942,416.96C348.646,415.746 348.365,414.324 347.227,413.338C346.828,412.993 346.245,413.026 345.925,413.412C345.605,413.799 345.668,414.392 346.067,414.738C346.494,415.108 346.583,415.514 346.333,415.947C346.139,416.281 345.724,416.619 345.109,416.82C344.852,413.487 344.469,410.183 343.963,406.932C345.145,406.959 346.36,407.384 347.479,408.175C349.238,409.418 350.489,411.417 350.823,413.522C351.076,415.118 351.284,417.373 350.172,418.514Z" style="fill:white;fill-rule:nonzero;"/>
            </g>
            <path d="M395.957,418.115C395.97,418.013 395.978,417.913 395.983,417.814L395.993,417.814L395.819,406.47C396.123,405.632 396.285,404.388 396.204,403.612C394.869,403.414 393.407,403.485 392.012,403.608C391.441,403.659 385.655,404.089 385.655,404.089C385.589,405.225 385.684,406.761 385.684,406.761C385.727,406.788 385.774,406.809 385.822,406.831L385.983,417.341C385.738,417.082 385.393,416.897 384.922,416.825C383.121,416.482 381.531,417.071 380.849,417.875C379.555,419.399 380.672,421.246 382.208,421.512C383.832,421.793 386.197,421.222 386.44,419.297C386.453,419.195 386.46,419.095 386.466,418.996L386.476,418.995L386.323,409.018C387.258,408.842 389.066,408.793 390.822,408.746C393.031,408.687 394.561,408.632 395.385,408.443L395.503,416.159C395.258,415.9 394.913,415.715 394.441,415.643C392.64,415.3 391.05,415.889 390.368,416.693C389.074,418.217 390.192,420.064 391.727,420.33C393.349,420.611 395.714,420.04 395.957,418.115ZM390.828,407.832C389.04,407.88 387.338,407.925 386.307,408.098L386.289,406.959C387.276,407.095 388.716,406.675 389.532,406.605C391.503,406.437 393.406,406.604 395.352,406.552L395.367,407.512C394.754,407.728 392.588,407.786 390.828,407.832Z" style="fill:white;fill-rule:nonzero;"/>
            <g transform="matrix(0.97802,0.20851,-0.20851,0.97802,18.7645,-40.0873)">
                <path d="M376.138,404.148C376.151,404.046 376.159,403.946 376.164,403.847L376.174,403.846L376,392.502C376.304,391.664 376.465,390.42 376.384,389.643C375.049,389.445 373.587,389.516 372.192,389.639C371.621,389.689 365.835,390.12 365.835,390.12C365.769,391.256 365.864,392.792 365.864,392.792C365.907,392.819 365.954,392.841 366.002,392.862L366.163,403.372C365.918,403.113 365.573,402.928 365.102,402.856C363.3,402.513 361.711,403.102 361.028,403.906C359.734,405.43 360.852,407.277 362.387,407.543C364.011,407.824 366.376,407.253 366.619,405.328C366.632,405.226 366.64,405.126 366.645,405.027L366.655,405.026L366.502,395.049C367.437,394.873 369.245,394.824 371.001,394.777C373.21,394.718 374.74,394.663 375.564,394.474L375.682,402.19C375.437,401.931 375.092,401.746 374.621,401.674C372.82,401.331 371.23,401.92 370.548,402.724C369.254,404.248 370.372,406.095 371.907,406.361C373.53,406.644 375.895,406.072 376.138,404.148ZM371.009,393.865C369.22,393.912 367.519,393.958 366.488,394.131L366.47,392.992C367.457,393.128 368.897,392.708 369.713,392.638C371.684,392.47 373.587,392.637 375.534,392.585L375.549,393.545C374.934,393.76 372.769,393.818 371.009,393.865Z" style="fill:white;fill-rule:nonzero;"/>
            </g>
            <g transform="matrix(0.97802,0.20851,-0.20851,0.97802,220.472,-57.7552)">
                <path d="M376.138,404.148C376.151,404.046 376.159,403.946 376.164,403.847L376.174,403.846L376,392.502C376.304,391.664 376.465,390.42 376.384,389.643C375.049,389.445 373.587,389.516 372.192,389.639C371.621,389.689 365.835,390.12 365.835,390.12C365.769,391.256 365.864,392.792 365.864,392.792C365.907,392.819 365.954,392.841 366.002,392.862L366.163,403.372C365.918,403.113 365.573,402.928 365.102,402.856C363.3,402.513 361.711,403.102 361.028,403.906C359.734,405.43 360.852,407.277 362.387,407.543C364.011,407.824 366.376,407.253 366.619,405.328C366.632,405.226 366.64,405.126 366.645,405.027L366.655,405.026L366.502,395.049C367.437,394.873 369.245,394.824 371.001,394.777C373.21,394.718 374.74,394.663 375.564,394.474L375.682,402.19C375.437,401.931 375.092,401.746 374.621,401.674C372.82,401.331 371.23,401.92 370.548,402.724C369.254,404.248 370.372,406.095 371.907,406.361C373.53,406.644 375.895,406.072 376.138,404.148ZM371.009,393.865C369.22,393.912 367.519,393.958 366.488,394.131L366.47,392.992C367.457,393.128 368.897,392.708 369.713,392.638C371.684,392.47 373.587,392.637 375.534,392.585L375.549,393.545C374.934,393.76 372.769,393.818 371.009,393.865Z" style="fill:white;fill-rule:nonzero;"/>
            </g>
        </g>
    </g>
</svg>
